<?xml version="1.0" encoding="utf-8"?>
<!-- Generator: Adobe Illustrator 25.4.1, SVG Export Plug-In . SVG Version: 6.00 Build 0)  -->
<svg version="1.1" id="Camada_1" xmlns="http://www.w3.org/2000/svg" xmlns:xlink="http://www.w3.org/1999/xlink" x="0px" y="0px"
	 viewBox="0 0 1280 1024" style="enable-background:new 0 0 1280 1024;" xml:space="preserve">
<style type="text/css">
	.st0{fill:#333333;}
</style>
<g>
	<path class="st0" d="M618.1,511.72c-2.33-1.42-4.68-2.4-7.02-2.97c2.57-1.09,4.71-3.06,6.03-5.67c0.85-1.7,1.28-3.52,1.28-5.41
		c0-6.64-5.41-12.04-12.05-12.04c-6.64,0-12.04,5.4-12.04,12.04c0,1.9,0.43,3.72,1.28,5.41c1.31,2.61,3.46,4.58,6.04,5.68
		c-2.33,0.57-4.66,1.55-6.99,2.96c-8.06,4.9-11.66,12.69-11.66,25.26c0,1.16,0.94,2.1,2.1,2.1c1.16,0,2.1-0.94,2.1-2.1
		c0-13.93,4.87-18.77,9.64-21.67c6.52-3.97,12.59-3.97,19.11,0c0.99,0.6,2.28,0.29,2.88-0.7
		C619.4,513.62,619.09,512.33,618.1,511.72z M599.32,501.21c-0.55-1.11-0.83-2.3-0.83-3.54c0-4.32,3.52-7.84,7.84-7.84
		c4.33,0,7.85,3.52,7.85,7.84c0,1.24-0.28,2.43-0.83,3.53c-1.34,2.67-4.04,4.32-7.02,4.32
		C603.34,505.53,600.65,503.87,599.32,501.21z"/>
	<path class="st0" d="M685.65,511.72c-2.32-1.41-4.65-2.39-6.98-2.96c2.58-1.09,4.73-3.06,6.04-5.68c0.85-1.7,1.28-3.52,1.28-5.41
		c0-6.64-5.4-12.04-12.04-12.04c-6.64,0-12.05,5.4-12.05,12.04c0,1.9,0.43,3.72,1.28,5.42c1.31,2.6,3.46,4.57,6.02,5.66
		c-2.35,0.57-4.69,1.55-7.02,2.97c-0.99,0.6-1.3,1.89-0.7,2.88c0.6,0.99,1.9,1.31,2.88,0.7c6.52-3.97,12.59-3.97,19.11,0
		c4.77,2.9,9.64,7.74,9.64,21.67c0,1.16,0.94,2.1,2.1,2.1s2.1-0.94,2.1-2.1C697.3,524.42,693.71,516.63,685.65,511.72z
		 M666.92,501.21c-0.55-1.11-0.83-2.3-0.83-3.54c0-4.32,3.52-7.84,7.85-7.84c4.32,0,7.84,3.52,7.84,7.84c0,1.24-0.28,2.43-0.83,3.54
		c-1.33,2.66-4.02,4.32-7.01,4.32C670.96,505.53,668.27,503.87,666.92,501.21z"/>
	<path class="st0" d="M651.9,511.72c-2.33-1.42-4.68-2.4-7.02-2.97c2.57-1.09,4.71-3.06,6.03-5.67c0.85-1.7,1.28-3.52,1.28-5.41
		c0-6.64-5.41-12.04-12.05-12.04c-6.64,0-12.04,5.4-12.04,12.04c0,1.89,0.43,3.72,1.28,5.41c1.31,2.61,3.46,4.58,6.04,5.68
		c-2.33,0.57-4.66,1.55-6.98,2.96c-8.06,4.9-11.66,12.69-11.66,25.26c0,1.16,0.94,2.1,2.1,2.1c1.16,0,2.1-0.94,2.1-2.1
		c0-13.93,4.87-18.77,9.64-21.67c6.52-3.97,12.59-3.97,19.11,0c4.77,2.9,9.64,7.74,9.64,21.67c0,1.16,0.94,2.1,2.1,2.1
		c1.16,0,2.1-0.94,2.1-2.1C663.56,524.42,659.96,516.63,651.9,511.72z M633.13,501.21c-0.55-1.11-0.83-2.3-0.83-3.54
		c0-4.32,3.52-7.84,7.84-7.84c4.33,0,7.85,3.52,7.85,7.84c0,1.24-0.28,2.43-0.83,3.53c-1.34,2.67-4.04,4.32-7.02,4.32
		C637.15,505.53,634.46,503.87,633.13,501.21z"/>
</g>
</svg>
