<?xml version="1.0" encoding="utf-8"?>
<!-- Generator: Adobe Illustrator 25.4.1, SVG Export Plug-In . SVG Version: 6.00 Build 0)  -->
<svg version="1.1" id="Camada_1" xmlns="http://www.w3.org/2000/svg" xmlns:xlink="http://www.w3.org/1999/xlink" x="0px" y="0px"
	 viewBox="0 0 1280 1024" style="enable-background:new 0 0 1280 1024;" xml:space="preserve">
<style type="text/css">
	.st0{fill:#FFFFFF;}
	.st1{fill:#333333;}
</style>
<rect class="st0" width="1300" height="1000"/>
<g>
	<path class="st1" d="M583.55,484.65c-2.33-1.42-4.68-2.4-7.02-2.97c2.57-1.09,4.71-3.06,6.03-5.67c0.85-1.7,1.28-3.52,1.28-5.41
		c0-6.64-5.41-12.04-12.05-12.04c-6.64,0-12.04,5.4-12.04,12.04c0,1.89,0.43,3.71,1.28,5.41c1.31,2.61,3.46,4.58,6.04,5.68
		c-2.33,0.57-4.66,1.55-6.98,2.96c-8.06,4.9-11.65,12.69-11.65,25.25c0,1.16,0.94,2.1,2.1,2.1c1.16,0,2.1-0.94,2.1-2.1
		c0-13.93,4.87-18.77,9.64-21.67c6.52-3.96,12.59-3.96,19.11,0c0.99,0.61,2.28,0.29,2.88-0.7
		C584.86,486.54,584.54,485.25,583.55,484.65z M564.78,474.13c-0.55-1.11-0.84-2.3-0.84-3.53c0-4.33,3.52-7.84,7.84-7.84
		c4.33,0,7.85,3.52,7.85,7.84c0,1.24-0.28,2.43-0.83,3.53c-1.34,2.67-4.03,4.33-7.02,4.33C568.79,478.45,566.11,476.8,564.78,474.13
		z"/>
	<path class="st1" d="M651.1,484.65c-2.32-1.41-4.65-2.39-6.98-2.96c2.58-1.09,4.73-3.06,6.04-5.68c0.85-1.7,1.28-3.52,1.28-5.41
		c0-6.64-5.4-12.04-12.04-12.04c-6.64,0-12.05,5.4-12.05,12.04c0,1.89,0.43,3.71,1.28,5.42c1.31,2.6,3.46,4.57,6.02,5.66
		c-2.35,0.57-4.69,1.55-7.02,2.97c-0.99,0.6-1.3,1.89-0.7,2.88c0.6,0.99,1.89,1.31,2.88,0.7c6.52-3.97,12.59-3.97,19.11,0
		c4.77,2.9,9.64,7.74,9.64,21.67c0,1.16,0.94,2.1,2.1,2.1s2.1-0.94,2.1-2.1C662.76,497.34,659.17,489.55,651.1,484.65z
		 M632.38,474.13c-0.55-1.11-0.84-2.3-0.84-3.53c0-4.33,3.52-7.84,7.85-7.84c4.32,0,7.84,3.52,7.84,7.84c0,1.24-0.28,2.43-0.84,3.53
		c-1.33,2.66-4.02,4.32-7.01,4.32C636.41,478.45,633.72,476.79,632.38,474.13z"/>
	<path class="st1" d="M617.36,484.65c-2.33-1.42-4.68-2.4-7.02-2.97c2.57-1.09,4.71-3.06,6.03-5.67c0.85-1.7,1.28-3.52,1.28-5.41
		c0-6.64-5.41-12.04-12.05-12.04c-6.64,0-12.04,5.4-12.04,12.04c0,1.89,0.43,3.71,1.28,5.41c1.31,2.61,3.46,4.58,6.04,5.68
		c-2.33,0.57-4.66,1.55-6.98,2.96c-8.06,4.9-11.65,12.69-11.65,25.25c0,1.16,0.94,2.1,2.1,2.1c1.16,0,2.1-0.94,2.1-2.1
		c0-13.93,4.87-18.77,9.64-21.67c6.52-3.97,12.59-3.97,19.11,0c4.77,2.9,9.64,7.74,9.64,21.67c0,1.16,0.94,2.1,2.1,2.1
		c1.16,0,2.1-0.94,2.1-2.1C629.02,497.34,625.42,489.55,617.36,484.65z M598.58,474.13c-0.55-1.11-0.84-2.3-0.84-3.53
		c0-4.33,3.52-7.84,7.84-7.84c4.33,0,7.85,3.52,7.85,7.84c0,1.24-0.28,2.43-0.83,3.53c-1.34,2.67-4.03,4.33-7.02,4.33
		C602.6,478.45,599.92,476.8,598.58,474.13z"/>
	<path class="st1" d="M642.88,422.07c-0.04-0.06-0.09-0.12-0.14-0.17c-0.33-0.38-0.79-0.63-1.3-0.69l-0.87-0.11l-12.58-1.61
		c-1.15-0.14-2.2,0.67-2.35,1.82c-0.14,1.15,0.67,2.2,1.82,2.35l7.95,1.01l-15.67,11.45l-12.42-16.91
		c-0.66-0.89-1.89-1.12-2.82-0.53l-33.83,21.45c-0.98,0.62-1.27,1.92-0.65,2.9c0.4,0.63,1.08,0.97,1.77,0.97
		c0.39,0,0.78-0.1,1.12-0.32l32.18-20.41l12.51,17.03c0.69,0.93,2,1.13,2.93,0.45l17.54-12.84l-1.84,8.88
		c-0.23,1.13,0.5,2.24,1.63,2.48c0.15,0.03,0.29,0.04,0.43,0.04c0.97,0,1.85-0.68,2.05-1.67l2.89-13.93
		C643.35,423.14,643.22,422.54,642.88,422.07z"/>
</g>
</svg>
